<svg xmlns="http://www.w3.org/2000/svg" viewBox="0 0 161.97 199.5"><defs><style>.cls-1{fill-rule:evenodd;}</style></defs><title>rasa_logo_square_black</title><g id="Black_square_logo" data-name="Black square logo"><path class="cls-1" d="M134.48,41.72v-12h-50v50h12V64.67h26v15h12v-15h0v-12h0v-11Zm-12,11h-26v-11h26Z"/><polygon class="cls-1" points="76.48 116.25 76.48 128.75 76.48 138.75 27.48 138.75 27.48 126.75 64.48 126.75 64.48 119.75 27.48 119.75 27.48 108.75 27.48 96.25 27.48 88.75 76.48 88.75 76.48 100.75 39.48 100.75 39.48 107.75 76.48 107.75 76.48 116.25 76.48 116.25"/><path class="cls-1" d="M134.48,100.72v-12h-50v50h12V123.67h26v15h12v-15h0v-12h0v-11Zm-12,11h-26v-11h26Z"/><path d="M145.48,18.75V149.44H124.75v22.28L87.27,151l-2.94-1.62H81l-64.49,0V18.75h129m13-13H3.48V162.44l77.5,0,56.76,31.35V162.44h20.74V5.75Z"/><path class="cls-1" d="M60.39,60.69,75.75,55.1l.73-.29V29.75h-49v1l-.11,49h12V68.34l9-3.26L61.87,79.75H76.69Zm-21-5.12V41.75H64.48v4.68Z"/></g></svg>