<svg id="White_square_logo" data-name="White square logo" xmlns="http://www.w3.org/2000/svg" viewBox="0 0 161.97 198.5"><defs><style>.cls-1,.cls-2{fill:#fff;}.cls-1{fill-rule:evenodd;}</style></defs><title>rasa_logo_square_white</title><path class="cls-1" d="M134.48,41.22v-12h-50v50h12V64.17h26v15h12v-15h0v-12h0v-11Zm-12,11h-26v-11h26Z"/><polygon class="cls-1" points="76.48 115.75 76.48 128.25 76.48 138.25 27.48 138.25 27.48 126.25 64.48 126.25 64.48 119.25 27.48 119.25 27.48 108.25 27.48 95.75 27.48 88.25 76.48 88.25 76.48 100.25 39.48 100.25 39.48 107.25 76.48 107.25 76.48 115.75 76.48 115.75"/><path class="cls-1" d="M134.48,100.22v-12h-50v50h12V123.17h26v15h12v-15h0v-12h0v-11Zm-12,11h-26v-11h26Z"/><path class="cls-2" d="M145.48,18.25V148.94H124.75v22.28l-37.48-20.7-2.94-1.62H81l-64.49,0V18.25h129m13-13H3.48V161.94l77.5,0,56.76,31.35V161.94h20.74V5.25Z"/><path class="cls-1" d="M60.39,60.19,75.75,54.6l.73-.29V29.25h-49v1l-.11,49h12V67.84l9-3.26L61.87,79.25H76.69Zm-21-5.12V41.25H64.48v4.68Z"/></svg>